<svg xmlns="http://www.w3.org/2000/svg" viewBox="0 0 200 400" fill="currentColor" aria-hidden="true">
  <path d="M100 0 L96 90 L104 90 Z"/>
  <rect x="94" y="80" width="12" height="14"/>
  <path d="M82 94 L118 94 L116 180 L84 180 Z" fill="none" stroke="currentColor" stroke-width="4"/>
  <rect x="80" y="178" width="40" height="6"/>
  <path d="M60 184 L140 184 L130 296 L70 296 Z" fill="none" stroke="currentColor" stroke-width="4"/>
  <line x1="60" y1="184" x2="140" y2="296" stroke="currentColor" stroke-width="2"/>
  <line x1="140" y1="184" x2="60" y2="296" stroke="currentColor" stroke-width="2"/>
  <rect x="56" y="294" width="88" height="6"/>
  <path d="M20 300 L180 300 L150 400 L50 400 Z" fill="none" stroke="currentColor" stroke-width="5"/>
  <line x1="20" y1="300" x2="150" y2="400" stroke="currentColor" stroke-width="3"/>
  <line x1="180" y1="300" x2="50" y2="400" stroke="currentColor" stroke-width="3"/>
  <line x1="100" y1="300" x2="80" y2="400" stroke="currentColor" stroke-width="3"/>
  <line x1="100" y1="300" x2="120" y2="400" stroke="currentColor" stroke-width="3"/>
</svg>
