<svg xmlns="http://www.w3.org/2000/svg" viewBox="0 0 60 170" fill="currentColor" aria-hidden="true">
  <circle cx="30" cy="18" r="13"/>
  <path d="M30 34
           C 18 34, 12 44, 12 60
           L 12 96
           C 12 100, 16 102, 19 100
           L 22 70
           L 22 110
           L 18 168
           C 18 170, 24 170, 25 168
           L 30 116
           L 35 168
           C 36 170, 42 170, 42 168
           L 38 110
           L 38 70
           L 41 100
           C 44 102, 48 100, 48 96
           L 48 60
           C 48 44, 42 34, 30 34 Z"/>
</svg>
